<?xml version="1.0" encoding="utf-8"?>
<!DOCTYPE svg PUBLIC "-//W3C//DTD SVG 1.0//EN" "http://www.w3.org/TR/2001/REC-SVG-20010904/DTD/svg10.dtd">
<svg version="1.0" xmlns="http://www.w3.org/2000/svg" width="1024px" height="1024px" viewBox="0 0 1024 1024" preserveAspectRatio="xMidYMid meet">
 <g fill="none">
  <path d="M0 512 l0 -512 512 0 512 0 0 512 0 512 -512 0 -512 0 0 -512z m401 277 l7.2 -8 105.8 0 105.7 0 7.5 8 7.5 8 19.4 0 c10.7 0 19.9 -0.4 20.6 -0.8 0.7 -0.4 1.3 -3.7 1.5 -7.7 l0.3 -7 5 -0.3 c6.7 -0.4 8.7 -2.3 8.3 -8.1 -0.2 -3.7 -0.8 -4.8 -2.8 -5.8 -3.8 -2 -346 -1.4 -348.3 0.6 -2.3 1.8 -2.3 10.3 -0.1 12.2 0.9 0.7 3.9 1.3 6.7 1.4 l5.2 0 0.3 6.5 c0.1 3.6 0.4 7.1 0.7 7.8 0.3 0.9 5.5 1.2 21.4 1.2 l20.9 0 7.2 -8z m-33.5 -191 l0 -146.5 -5.5 0 -5.5 0 -0.3 144.5 c-0.1 79.5 0 145.5 0.3 146.8 0.5 2.1 1 2.3 5.8 2 l5.2 -0.3 0 -146.5z m36.5 144.4 c1.4 -3.5 1.3 -3.7 -1 -1.4 -2.2 2.2 -8.1 2.7 -12.4 1 -2 -0.7 -2.6 -0.6 -2.6 0.4 0 2.2 1.2 2.6 8.2 2.6 6.4 0 6.9 -0.2 7.8 -2.6z m34.3 1.1 c0.2 -1.1 -14.6 -2 -17 -1.1 -0.8 0.3 -1.1 1.1 -0.8 1.6 0.8 1.4 17.4 0.9 17.8 -0.5z m39.5 -0.7 c0.3 -1.6 -0.7 -1.8 -11.2 -1.8 -9.3 0 -11.6 0.3 -11.6 1.4 0 2.2 1.7 2.5 12.5 2.3 8.6 -0.2 10 -0.4 10.3 -1.9z m24.7 0.7 c0 -1.2 -5 -1.9 -7.1 -1.1 -0.9 0.3 -1.2 1.1 -0.9 1.6 0.8 1.4 8 0.9 8 -0.5z m33 -26.5 l0 -27.5 -8.5 0 -8.5 0 -0.3 26.4 c-0.2 19 0.1 26.7 0.9 27.8 0.9 1 3.2 1.3 8.8 1.1 l7.6 -0.3 0 -27.5z m37.3 26.8 c0.7 -0.7 1.2 -1.6 1.2 -2 0 -0.4 -5.2 -0.8 -11.5 -0.8 -6.3 0 -11.5 0.4 -11.5 0.8 0 2.4 3 3.2 11.5 3.2 5.7 0 9.5 -0.4 10.3 -1.2z m42 0 c0.7 -0.7 1.2 -1.6 1.2 -2 0 -0.4 -6.1 -0.8 -13.5 -0.8 -7.4 0 -13.5 0.4 -13.5 0.8 0 2.5 3 3.2 13.5 3.2 7.3 0 11.5 -0.4 12.3 -1.2z m25.2 -0.3 c0 -1.1 -1.1 -1.5 -3.9 -1.5 -3.8 0 -5.7 1 -4.4 2.4 0.3 0.3 2.4 0.6 4.5 0.6 2.7 0 3.8 -0.4 3.8 -1.5z m30.5 -145.5 l0 -146.5 -5.1 -0.3 -5.1 -0.3 -0.6 6.8 c-0.9 8.8 -0.9 283.6 -0.1 285.8 0.5 1.2 1.8 1.5 5.8 1.3 l5.1 -0.3 0 -146.5z m-266 95.2 c-0.6 -5.1 -0.7 -5.2 -2.8 -3.7 -2.5 1.7 -7.4 2 -11.1 0.5 l-2.6 -1 0 19.2 c0 14.9 0.3 18.9 1.2 18 1.9 -1.9 12.3 -1.5 13.9 0.5 1.2 1.4 1.4 -0.5 1.7 -13.3 0.2 -8.2 0 -17.3 -0.3 -20.2z m73.5 14.2 l0 -18.4 -12 0 -12 0 0 18.8 0 18.7 12 -0.3 12 -0.3 0 -18.5z m-40.2 18 c2.1 -0.6 2.2 -1 2.2 -14.3 0 -7.5 -0.4 -14.2 -0.8 -14.9 -0.6 -0.9 -3.4 -1.2 -10.3 -1 l-9.4 0.3 0 14.5 0 14.5 3.5 0.6 c4.8 0.9 12 1 14.8 0.3z m136.2 -17.9 l0 -18.5 -11.5 0 -11.5 0 0 18.5 0 18.5 11.5 0 11.5 0 0 -18.5z m42 0.5 c0 -21.1 1.6 -19.2 -15.5 -18.8 l-11 0.3 -0.3 18.3 -0.2 18.2 13.5 0 13.5 0 0 -18z m-112.2 -7.8 c0.3 -28.4 0 -30.6 -4.7 -31 -6.1 -0.6 -6.1 -0.5 -6.1 27 0 15.7 0.4 25.7 1.1 26.9 0.8 1.6 1.9 1.9 5.2 1.7 l4.2 -0.3 0.3 -24.3z m137 6.3 c0.1 -9.9 -0.1 -22.3 -0.5 -27.5 l-0.8 -9.5 -4 0 -4 0 -0.3 26.5 c-0.1 14.6 0 27.1 0.3 27.8 0.3 0.9 1.9 1.2 4.7 1 l4.3 -0.3 0.3 -18z m-245.4 -34.5 c1.9 0 4.7 0.5 6.1 1 2.4 0.9 2.6 0.8 2.3 -1.2 -0.3 -2.1 -0.9 -2.3 -6.6 -2.6 -6.5 -0.3 -9.2 0.7 -9.2 3.5 0 1 0.4 1.1 1.9 0.3 1.1 -0.5 3.5 -1 5.5 -1z m81.6 -1.5 c-1 -1.3 -3.3 -1.5 -11.3 -1.3 -6.9 0.2 -10.2 0.7 -10.5 1.6 -0.3 0.9 2.4 1.2 11.3 1.2 10.4 0 11.6 -0.2 10.5 -1.5z m58.8 0.3 c-0.3 -0.9 -2.9 -1.3 -8.3 -1.3 -5.4 0 -8 0.4 -8.2 1.3 -0.4 0.9 1.7 1.2 8.2 1.2 6.5 0 8.6 -0.3 8.3 -1.2z m37.2 -0.3 c-0.9 -1.1 -3.5 -1.5 -10.5 -1.5 -7 0 -9.6 0.4 -10.5 1.5 -1.1 1.3 0.2 1.5 10.5 1.5 10.3 0 11.6 -0.2 10.5 -1.5z m42.8 0.3 c-0.3 -0.9 -3.9 -1.4 -12.3 -1.6 -12.3 -0.3 -15.1 0.1 -14 1.8 1 1.6 26.8 1.3 26.3 -0.2z m-171 -28 c0.9 -0.9 1.2 -9.6 1.2 -32.9 l0 -31.8 -12 -0.3 -12 -0.3 0 31.4 c0 27.9 0.2 31.7 1.7 33.3 1.3 1.5 3.2 1.8 10.8 1.8 5.7 0 9.5 -0.4 10.3 -1.2z m26 -0.3 c0.2 -0.2 0.2 -1.1 -0.1 -2 -0.8 -2 -8.3 -2.1 -9.1 0 -0.7 2 2.3 3.6 5.8 3 1.6 -0.3 3.2 -0.7 3.4 -1z m28.1 0.6 c0.8 -0.5 1.1 -1.6 0.8 -2.5 -0.5 -1.2 -2.1 -1.6 -6.7 -1.6 -4.6 0 -6.2 0.4 -6.7 1.6 -0.8 2.2 1.4 3.4 6.7 3.4 2.5 0 5.1 -0.4 5.9 -0.9z m47.9 -0.3 c0.7 -0.7 1.2 -2 1.2 -3 0 -1.6 -1.1 -1.8 -12.5 -1.8 -11.4 0 -12.4 0.1 -11.8 1.8 0.3 0.9 1.3 2.3 2.1 3 2.1 1.6 19.3 1.7 21 0z m30.7 -1.3 c0 -1.8 -0.8 -2 -6.4 -2.3 -6.7 -0.3 -8.8 0.6 -7.7 3.3 0.5 1.3 1.9 1.5 7.3 1.3 6 -0.3 6.8 -0.5 6.8 -2.3z m37.7 0.8 c1.7 -1.5 1.8 -3.9 1.8 -33.2 l0 -31.6 -12 0 -12 0 0 32.1 c0 23.5 0.3 32.3 1.2 33.2 2 2 18.7 1.6 21 -0.5z m25.3 -0.8 c0 -1.6 -0.8 -2.1 -3.9 -2.3 -4.3 -0.4 -6.2 0.8 -5.2 3.3 0.4 1.2 1.6 1.5 4.8 1.3 3.5 -0.2 4.3 -0.7 4.3 -2.3z m-253.1 -0.1 c0.8 -2.1 0.9 -2 -3.5 -2.8 -2.9 -0.5 -3.8 -0.3 -4.3 1 -0.9 2.4 0.2 3.4 3.9 3.4 2.1 0 3.5 -0.6 3.9 -1.6z m190 -19 c1.3 -1.3 1.6 -4.4 1.6 -18.7 0 -9.5 -0.3 -18.2 -0.6 -19.5 -0.6 -2.1 -1.1 -2.3 -7.8 -2 l-7.1 0.3 -0.3 20.2 -0.2 20.2 5.2 0.4 c2.9 0.2 5.8 0.4 6.5 0.5 0.6 0.1 1.9 -0.5 2.7 -1.4z m-183.4 -3.6 c0.6 -2.4 2 -7.4 3 -11.3 1.1 -3.8 1.6 -7.2 1.2 -7.6 -0.4 -0.4 -2.3 -1 -4.3 -1.4 -4 -0.7 -3.9 -1 -7.5 14.8 -2 8.7 -1.6 9.7 3.8 9.7 2.4 0 2.9 -0.6 3.8 -4.2z m76.5 -16.3 l0 -20 -4.5 0 -4.5 0 -0.3 19 c-0.1 10.4 0 19.5 0.3 20.3 0.3 0.9 1.9 1.2 4.7 1 l4.3 -0.3 0 -20z m29.3 3 c0.2 -9.3 0 -18.5 -0.3 -20.3 l-0.6 -3.3 -6.7 0.3 -6.7 0.3 -0.3 19 c-0.1 10.4 0 19.5 0.3 20.3 0.3 0.9 2.3 1.2 7.2 1 l6.8 -0.3 0.3 -17z m37.3 16.5 l10.9 0 0 -22 0 -22 -12 0 -12 0 0 16.4 c0 8.9 -0.3 19.1 -0.7 22.6 -0.6 5.8 -0.5 6.3 1.1 5.7 1 -0.4 6.7 -0.7 12.7 -0.7z m103.4 -19.5 l0 -20 -4.7 -0.3 -4.8 -0.3 0 20.6 0 20.6 4.8 -0.3 4.7 -0.3 0 -20z m-234.2 -27.9 c1 -4.5 1.4 -8.3 0.9 -8.8 -1.7 -1.7 -7.1 -2.7 -8 -1.5 -1.4 1.7 -4.4 14.7 -3.8 16.2 0.5 1.4 3.7 2.4 7.1 2.1 1.6 -0.1 2.3 -1.5 3.8 -8z m62.2 -9.6 c-2.8 -1.2 -5.5 -1.2 -5.5 0 0 0.6 1.7 1 3.8 0.9 3 0 3.3 -0.2 1.7 -0.9z m30 0 c0.4 -0.6 -1.7 -1 -5.4 -1 -3.4 0 -6.1 0.4 -6.1 1 0 0.6 2.4 1 5.4 1 3 0 5.8 -0.4 6.1 -1z m141 0 c-0.3 -0.5 -1.7 -1 -3 -1 -1.3 0 -2.7 0.5 -3 1 -0.4 0.6 0.8 1 3 1 2.2 0 3.4 -0.4 3 -1z m-64.7 -0.7 c-1.6 -0.2 -4 -0.2 -5.5 0 -1.6 0.2 -0.3 0.4 2.7 0.4 3 0 4.3 -0.2 2.8 -0.4z m-129.8 -4.4 c-0.9 -1.7 -2.2 -1.9 -10.3 -1.9 -9.4 0 -10.9 0.4 -11.9 3 -0.5 1.3 1.1 1.5 11.3 1.2 11.4 -0.3 11.9 -0.4 10.9 -2.3z m172 1.6 c0 -2.7 -2.7 -3.5 -11.3 -3.5 -8.8 0 -12.7 1 -12.7 3.3 0 0.9 3.3 1.2 12 1.2 7.7 0 12 -0.4 12 -1z m-69 -0.3 c0 -2.4 -3 -3.2 -12 -3.2 -9 0 -12 0.8 -12 3.2 0 0.4 5.4 0.8 12 0.8 6.6 0 12 -0.4 12 -0.8z m94.8 -27.7 c3.8 -1.1 5.2 -2.1 5.2 -3.4 0 -2.8 -0.9 -3 -5.8 -1.4 -11.2 3.6 -13.1 4.5 -12.5 6 0.7 1.7 4.4 1.4 13.1 -1.2z m-234.4 -0.1 c0.3 -0.9 0.6 -2.9 0.6 -4.6 l0 -3.1 -2.1 2.7 c-1.8 2.3 -2.7 2.6 -8.6 2.6 -8.9 0 -10.3 -1.3 -10.3 -9.6 0 -5.6 0.3 -6.5 2.6 -8.3 1.9 -1.5 4.1 -2.1 7.3 -2 5.9 0.1 8 0.9 9.7 4 1.1 2.1 1.3 -2.1 1.4 -29.6 0 -23.7 -0.3 -32.4 -1.2 -33.3 -0.8 -0.8 -4.5 -1.2 -10 -1.2 -8.6 0 -8.9 0.1 -9.8 2.6 -1.5 3.9 -1.3 78.7 0.2 80.2 0.8 0.8 4.6 1.2 10.4 1.2 7.5 0 9.3 -0.3 9.8 -1.6z m29.4 -0.7 c0.3 -1.6 0.1 -1.7 -1.9 -0.7 -1.2 0.7 -4.3 1 -7 0.8 -4.6 -0.5 -5.8 0 -4.2 1.6 0.4 0.4 3.4 0.6 6.7 0.4 5 -0.2 6.1 -0.6 6.4 -2.1z m23.2 1.3 c0 -0.5 -1.6 -1 -3.5 -1 -1.9 0 -3.5 0.5 -3.5 1 0 0.6 1.6 1 3.5 1 1.9 0 3.5 -0.4 3.5 -1z m37.7 -4.5 c0.2 -3.7 0 -4.5 -0.7 -2.9 -2.1 5.1 -10 7 -15.9 3.9 -3.5 -1.8 -4.1 -3.2 -4.1 -10 0 -6.9 2.8 -9.5 10.2 -9.5 5.7 0 8.6 1.2 9.8 4.3 0.5 1.3 0.8 -10.8 0.7 -30.8 l-0.2 -33 -9.5 -0.3 c-8 -0.2 -9.7 0 -10.7 1.5 -1.6 2.1 -1.9 75.7 -0.3 79.8 1 2.6 1 2.6 10.7 2.3 l9.8 -0.3 0.2 -5z m49 4.4 c0.6 -0.6 0.9 -1.8 0.6 -2.5 -0.7 -2 -21.6 -2 -23.2 -0.1 -0.8 1 -0.7 1.7 0.1 2.5 1.6 1.6 21 1.6 22.5 0.1z m37.1 -0.1 c0.9 -0.9 1.2 -11.2 1.2 -40.4 0 -21.6 -0.3 -39.9 -0.6 -40.8 -0.5 -1.3 -2.3 -1.6 -9.8 -1.6 -5.8 0 -9.6 0.4 -10.4 1.2 -0.9 0.9 -1.2 9.5 -1.2 32.6 0 30.7 0 31.4 1.9 29.1 2.7 -3.4 12.5 -4 16.4 -0.9 2.4 1.9 2.7 2.8 2.7 8 0 8.6 -1.9 10.5 -10.5 10.5 -5.8 0 -6.9 -0.3 -8.6 -2.4 l-1.9 -2.3 0 2.9 c0 4.6 1.5 5.3 11 5.3 5.4 0 9.1 -0.5 9.8 -1.2z m-122.4 -19.9 c0.9 -4.6 0.7 -26.2 -0.3 -27.7 -0.5 -0.8 -2.3 -1.2 -4.7 -1 l-3.9 0.3 -0.3 14.5 c-0.1 7.9 0 15 0.2 15.7 0.3 0.8 2.2 1.3 4.4 1.3 3.6 0 4 -0.3 4.6 -3.1z m-24.6 -19.9 l-0.3 -21.5 -6.5 0 -6.5 0 -0.3 21.5 -0.2 21.5 7 0 7 0 -0.2 -21.5z m195.2 17.9 c9.2 -3.3 9.6 -5.3 0.4 -2.3 -8.5 2.7 -10.4 3.6 -9.8 4.6 0.3 0.5 1.3 0.6 2.3 0.3 0.9 -0.4 4.1 -1.6 7.1 -2.6z m-84.5 -19.9 l0 -19.5 -12 0 -12 0 -0.3 18.5 c-0.1 10.1 0 19 0.3 19.7 0.3 1.1 3.2 1.3 12.2 1.1 l11.8 -0.3 0 -19.5z m85.8 -2.9 c0.4 -0.4 -0.5 -4.7 -2 -9.5 -3 -9.9 -2.1 -9.6 -14.7 -5.2 l-6.2 2.1 2.8 9.2 2.8 9.1 8.3 -2.5 c4.5 -1.4 8.5 -2.8 9 -3.2z m-20.1 -33.7 c9.8 -3.1 10.3 -3.3 9 -4.6 -1.5 -1.5 -18.2 3.8 -18.2 5.7 0 1.9 -0.6 2 9.2 -1.1z m-176.4 -2.1 c-0.3 -1.4 -1.5 -1.9 -6.2 -2.1 -3.2 -0.2 -6.3 0.1 -6.9 0.7 -1.9 1.9 0.6 3.1 6.9 3.1 5.7 0 6.5 -0.2 6.2 -1.7z m109.6 0.1 c3.8 -1.5 -0.4 -2.4 -10.9 -2.4 -10.2 0 -14.7 0.9 -11.3 2.3 1.9 0.8 20.3 0.8 22.2 0.1z m141 -27 c2 -2 2 -7.3 0 -10.2 l-1.5 -2.2 -173.1 0 c-159.7 0 -173.3 0.1 -175 1.7 -2.1 1.9 -2.5 9.2 -0.6 11.1 0.9 0.9 41.1 1.2 174.9 1.2 156.6 0 173.9 -0.2 175.3 -1.6z m-95.1 -37.6 c1.3 -1 3.4 -11 9.2 -45.3 4.1 -24.2 8.1 -47.6 8.9 -51.9 0.9 -4.4 1.5 -8 1.3 -8.1 -0.1 -0.1 -9.9 8.3 -21.7 18.6 -27 23.7 -25.2 23.3 -38.6 9.7 -5 -5.1 -15.5 -16.3 -23.4 -24.8 -7.9 -8.5 -14.7 -15.6 -15.1 -15.8 -0.4 -0.2 -2.6 1.9 -5 4.6 -2.4 2.7 -13.1 14.2 -23.7 25.6 -22.6 24.1 -22.1 23.9 -31.3 15.8 -14.7 -13.2 -38.3 -33.2 -38.6 -32.9 -0.2 0.2 0.6 5.1 1.6 10.8 1.1 5.7 3.6 19.9 5.6 31.4 7.5 44.7 10.4 60.8 11.2 61.6 1 1 23.1 1.4 101.4 1.7 43.9 0.1 56.9 -0.1 58.2 -1z m-184.5 -108.4 c3.7 -0.6 4.2 -1 4.2 -3.2 0 -1.4 1.2 -4.9 2.6 -7.9 2.4 -4.8 2.6 -5.8 1.6 -9.1 -1.6 -5.2 -6.4 -10.6 -11.8 -13.2 -4.1 -2 -4.9 -2.1 -9.1 -0.9 -9.8 2.7 -16.9 13.5 -14.3 21.6 2.7 7.9 12.1 14.8 19 13.8 1.9 -0.2 5.4 -0.8 7.8 -1.1z m228.1 -1.7 c7.9 -5.3 11.1 -14.9 7.3 -22.4 -4.1 -7.9 -12 -12.3 -18.9 -10.4 -7.6 2.1 -15.2 11.1 -15.3 18.1 0 1.4 1.1 4.5 2.5 6.9 1.4 2.3 2.5 5.4 2.5 6.7 0 2 0.5 2.4 3.3 2.5 1.7 0 4.1 0.5 5.2 1 3.2 1.4 9.3 0.3 13.4 -2.4z m-116.2 -19.9 c4.9 -2.9 9.9 -9.3 11.3 -14.3 1.2 -4.1 1.1 -4.9 -1.4 -9.9 -3.7 -7.6 -12.6 -13.4 -18.4 -12 -8 1.9 -14.2 7.5 -16.3 14.3 -2.5 8.2 2 16.4 11.8 21.8 6.2 3.5 7.5 3.5 13 0.1z"/>
  <path d="M426.1 637.4 c-3.1 -3.9 -2.9 -11.7 0.4 -14.9 2 -2.1 3.4 -2.5 8 -2.5 7.8 0 10.5 2.7 10.5 10.5 0 7.7 -1.9 9.5 -10.4 9.5 -5.8 0 -6.7 -0.3 -8.5 -2.6z"/>
  <path d="M599 639.8 c-3.6 -2 -5.1 -5.6 -4.7 -11.2 0.6 -6.7 3 -8.6 10.8 -8.6 6.5 0 9.3 1.7 10.5 6.5 1 3.8 -0.3 9.6 -2.5 11.8 -2.4 2.5 -10.6 3.3 -14.1 1.5z"/>
  <path d="M508.4 366.8 c-4.4 -9.8 -11.2 -15.9 -21.5 -19.3 -4.7 -1.6 -4.9 -1.8 -4.9 -5.4 0 -3.6 0.2 -3.7 6.8 -6.6 9.2 -4 14.9 -9.9 18.9 -19.5 3 -7.2 3.3 -7.5 6.7 -7.8 3.4 -0.3 3.5 -0.1 4.7 4 2.8 10.5 9.3 18.7 18.4 23 3.3 1.5 6.6 2.8 7.3 2.8 0.7 0 1.2 1.4 1.2 3.8 0 3.8 -0.1 3.9 -6.2 6.3 -7.9 3.1 -15.6 10 -19.1 17.3 -2.6 5.3 -2.9 5.6 -6.6 5.6 -3.5 0 -3.9 -0.3 -5.7 -4.2z"/>
 </g>
 <g fill="#ffffff">
  <path d="M348.5 798.8 c-0.3 -0.7 -0.6 -4.2 -0.7 -7.8 l-0.3 -6.5 -4.3 0.3 c-2.7 0.2 -5.2 -0.2 -6.8 -1.2 -2.2 -1.5 -2.4 -2.3 -2.4 -9.5 0 -6.1 0.4 -8.2 1.7 -9.2 2.3 -2 350.5 -2.6 354.3 -0.6 2.3 1.1 2.5 1.9 2.8 8.6 0.4 9.2 -0.8 10.9 -8.2 11.3 l-5.1 0.3 -0.3 7 c-0.2 4 -0.8 7.3 -1.5 7.7 -0.7 0.4 -11.3 0.8 -23.6 0.8 l-22.4 0 -7.5 -8 -7.5 -8 -102.7 0 -102.8 0 -7.2 8 -7.2 8 -23.9 0 c-18.3 0 -24.1 -0.3 -24.4 -1.2z"/>
  <path d="M353.5 745.8 c-0.3 -1.3 -0.4 -68.7 -0.3 -149.8 l0.3 -147.5 8.5 0 8.5 0 0 149.5 0 149.5 -8.2 0.3 c-7.9 0.3 -8.3 0.2 -8.8 -2z"/>
  <path d="M385.7 747.3 c-0.4 -0.3 -0.7 -18.3 -0.7 -39.8 0 -32.4 0.2 -39.5 1.4 -40.4 0.9 -0.8 4.7 -1.1 10.7 -0.9 l9.4 0.3 0.6 13.5 c1.1 21.9 1 62.6 -0.1 65.4 -0.9 2.5 -1.1 2.6 -10.8 2.6 -5.4 0 -10.2 -0.3 -10.5 -0.7z m14.3 -9.3 c5.5 -5.5 -2.4 -13.6 -8.2 -8.3 -4 3.6 -1 9.8 5 10.2 0.6 0.1 2.1 -0.8 3.2 -1.9z m-0.6 -52.1 c4.3 -3.4 2.9 -9.1 -2.6 -10.4 -6.8 -1.7 -9.4 9.4 -2.8 11.8 2.4 0.9 2.6 0.8 5.4 -1.4z"/>
  <path d="M417.2 746.8 c-1.6 -1.6 -1.5 -5.3 0.2 -6.7 0.9 -0.8 5.2 -1.1 12.7 -0.9 l11.4 0.3 0 4 0 4 -11.5 0.3 c-8.1 0.2 -11.9 -0.1 -12.8 -1z"/>
  <path d="M453 747 c-1.3 -0.8 -1.5 -6.3 -1.8 -37.4 -0.2 -20.1 0.1 -38 0.6 -39.8 l0.8 -3.3 13.1 -0.3 c10.5 -0.2 13.2 0 14.2 1.2 1 1.1 1.3 11.1 1.3 39.9 0.1 21.2 -0.2 39 -0.6 39.6 -0.9 1.4 -25.4 1.5 -27.6 0.1z m23 -13.5 l0 -4.5 -9 0 c-8 0 -9 0.2 -10 2.1 -0.7 1.1 -0.9 3.2 -0.6 4.5 0.6 2.3 0.9 2.4 10.1 2.4 l9.5 0 0 -4.5z m-0.2 -53.3 l0.3 -5.3 -9.3 0.3 -9.3 0.3 -0.3 5.3 -0.3 5.3 9.3 -0.3 9.3 -0.3 0.3 -5.3z"/>
  <path d="M491.4 746.6 c-0.3 -0.8 -0.4 -2.7 -0.2 -4.3 0.3 -2.8 0.4 -2.8 7.3 -2.8 l7 0 0 4 0 4 -6.8 0.3 c-5.2 0.2 -6.9 0 -7.3 -1.2z"/>
  <path d="M516.1 746.7 c-0.8 -1.1 -1.1 -9.6 -0.9 -30.8 l0.3 -29.4 11.5 0 11.5 0 0 30.5 0 30.5 -10.6 0.3 c-8.1 0.2 -10.9 -0.1 -11.8 -1.1z"/>
  <path d="M549.2 746.8 c-1.7 -1.7 -1.7 -77.9 0 -79.6 1.7 -1.7 24.9 -1.7 26.6 0 1.7 1.7 1.7 77.9 0 79.6 -0.8 0.8 -5.2 1.2 -13.3 1.2 -8.1 0 -12.5 -0.4 -13.3 -1.2z m22.8 -13.3 l0 -4.5 -9.5 0 -9.5 0 0 4.5 0 4.5 9.5 0 9.5 0 0 -4.5z m-0.5 -53 l0 -5 -9 0 -9 0 -0.3 3.9 c-0.6 6.5 -0.3 6.7 9.5 6.4 l8.8 -0.3 0 -5z"/>
  <path d="M587.1 746.6 c-0.8 -0.9 -1.1 -9.9 -0.9 -30.7 l0.3 -29.4 15 -0.2 c8.3 -0.2 15.6 0.1 16.3 0.5 1.8 1.2 1.9 57.6 0.2 59.8 -1.7 2 -29.2 2.1 -30.9 0z m25.9 -13.1 l0 -4.5 -10.5 0 c-9.6 0 -10.5 0.2 -11.5 2.1 -0.7 1.1 -0.9 3.2 -0.6 4.5 0.6 2.4 0.9 2.4 11.6 2.4 l11 0 0 -4.5z"/>
  <path d="M628.4 746.6 c-0.3 -0.8 -0.4 -2.7 -0.2 -4.3 0.3 -2.8 0.3 -2.8 7.8 -2.8 8.1 0 8.9 0.7 7.6 6.1 -0.6 2.3 -1.1 2.4 -7.7 2.4 -5.1 0 -7.1 -0.4 -7.5 -1.4z"/>
  <path d="M656.6 746.5 c-0.8 -2.2 -0.8 -283 0.1 -291.8 l0.6 -6.8 8.1 0.3 8.1 0.3 0 149.5 0 149.5 -8.1 0.3 c-6.8 0.2 -8.3 0 -8.8 -1.3z"/>
  <path d="M420 728.1 l-3.5 -0.6 0 -17.5 0 -17.5 12.4 -0.3 c9.3 -0.2 12.6 0.1 13.3 1 0.4 0.7 0.8 8.8 0.8 17.9 0 16.4 0 16.7 -2.2 17.3 -2.8 0.7 -16.1 0.6 -20.8 -0.3z"/>
  <path d="M631.5 728.2 l-3 -0.7 0 -30.5 0 -30.5 7 0 7 0 0.6 7.5 c1 11.6 1 52.8 0.1 53.4 -1.6 1 -8.7 1.4 -11.7 0.8z"/>
  <path d="M491.1 726.1 c-0.7 -1.2 -1.1 -12.2 -1.1 -29.9 0 -22.9 0.3 -28.2 1.4 -29.1 0.9 -0.7 3.9 -1.1 7.7 -0.9 6.1 0.3 6.3 0.4 7.1 3.5 0.5 1.8 0.7 15.5 0.6 30.5 l-0.3 27.3 -7.2 0.3 c-6.3 0.2 -7.3 0 -8.2 -1.7z"/>
  <path d="M416.4 678.5 c-0.3 -0.8 -0.3 -2.2 0 -3 0.5 -1.3 2.6 -1.5 12.8 -1.3 l12.3 0.3 0 2.5 0 2.5 -12.3 0.3 c-10.2 0.2 -12.3 0 -12.8 -1.3z"/>
  <path d="M515.7 674.4 c-1.1 -1.2 -0.8 -5.9 0.5 -7.2 0.8 -0.8 4.8 -1.2 11.4 -1.2 11.2 0 12.8 0.7 12.2 5.7 l-0.3 2.8 -11.6 0.3 c-6.3 0.1 -11.8 -0.1 -12.2 -0.4z"/>
  <path d="M586.4 673.6 c-0.3 -0.8 -0.4 -2.7 -0.2 -4.3 l0.3 -2.8 15.8 -0.3 c15.4 -0.2 15.8 -0.2 16.6 1.9 0.4 1.2 0.6 3.3 0.3 4.6 -0.4 2.3 -0.5 2.3 -16.3 2.3 -12.8 0 -16.1 -0.3 -16.5 -1.4z"/>
  <path d="M380.3 646.3 c-4.8 -0.6 -5.9 -2.5 -4.4 -7.5 l1.3 -4.1 6.6 0.6 c8.3 0.8 9 1.5 7.2 7 -1.6 4.5 -3 5 -10.7 4z"/>
  <path d="M420.6 645.1 c-1.5 -1.7 -1.6 -5.7 -1.4 -45 0.3 -37.1 0.5 -43.3 1.8 -44.1 0.8 -0.5 7 -1 13.7 -1 11.1 0 12.3 0.2 13.3 1.9 1.5 3 1.4 87.3 -0.2 88.9 -0.8 0.8 -5.2 1.2 -13.3 1.2 -10.6 0 -12.4 -0.2 -13.9 -1.9z m19.4 -10.1 c1.1 -1.1 2 -3.1 2 -4.5 0 -3.3 -4.2 -7.5 -7.5 -7.5 -3 0 -7.5 4.1 -7.5 6.8 0 1.1 0.9 3.1 2.1 4.6 2.6 3.3 7.9 3.6 10.9 0.6z m3.5 -65 l0 -4.5 -9 0 -9 0 -0.3 3.3 c-0.6 6 -0.2 6.3 9.5 6 l8.8 -0.3 0 -4.5z"/>
  <path d="M459.8 645.9 c-1.1 -0.6 -1.8 -2.2 -1.8 -4.2 0 -5.3 0.9 -5.8 8.6 -5.5 l6.9 0.3 0.3 4.6 c0.3 4.1 0 4.7 -2 5.3 -3.5 0.9 -10.1 0.7 -12 -0.5z"/>
  <path d="M484.2 646.1 c-0.9 -0.5 -1.2 -2.4 -1 -5.2 l0.3 -4.4 9.5 0 9.5 0 0.3 4.4 c0.2 2.8 -0.1 4.7 -1 5.2 -0.7 0.5 -4.7 0.9 -8.8 0.9 -4.1 0 -8.1 -0.4 -8.8 -0.9z"/>
  <path d="M522.4 645.6 c-1.8 -1.4 -1.9 -2.8 -1.5 -44.8 0.2 -27 0.7 -43.8 1.3 -44.5 1.4 -1.8 25.9 -1.8 27.6 -0.1 1.7 1.7 1.7 87.9 0 89.6 -1.8 1.8 -24.8 1.6 -27.4 -0.2z m23.4 -15.3 l-0.3 -4.8 -7.5 -0.3 c-11.1 -0.4 -12 -0.1 -12 5.3 l0 4.5 10.1 0 10 0 -0.3 -4.7z m-0.3 -60.3 l0 -4.5 -9.7 -0.3 -9.8 -0.3 0 4.4 c0 2.4 0.3 4.7 0.7 5.1 0.4 0.4 4.8 0.5 9.8 0.4 l9 -0.3 0 -4.5z"/>
  <path d="M560.4 645.6 c-0.3 -0.7 -0.4 -3.1 -0.2 -5.2 l0.3 -3.9 10 0 10 0 0 5 0 5 -9.8 0.3 c-7.7 0.2 -9.8 0 -10.3 -1.2z"/>
  <path d="M591.2 645.8 c-0.9 -0.9 -1.2 -12.3 -1.2 -45 0 -42.2 0.1 -43.8 1.9 -44.8 2.8 -1.5 25.4 -1.3 26.9 0.2 0.9 0.9 1.2 12.1 1.2 44.3 0 40.6 -0.1 43.3 -1.8 44.8 -1.5 1.4 -4.1 1.7 -13.8 1.7 -8 0 -12.4 -0.4 -13.2 -1.2z m18.7 -10.1 c2.5 -2.1 3.2 -5.6 1.6 -8.7 -4.1 -8 -17.2 -2.3 -13.3 5.7 2.3 4.8 7.7 6.2 11.7 3z m3.6 -65.7 l0 -4.5 -8.5 0 -8.5 0 -0.3 3.3 c-0.6 6 -0.1 6.3 9 6 l8.3 -0.3 0 -4.5z"/>
  <path d="M628.4 645.6 c-0.3 -0.7 -0.4 -3.1 -0.2 -5.2 l0.3 -3.9 7.5 0 7.5 0 0 5 0 5 -7.3 0.3 c-5.6 0.2 -7.4 0 -7.8 -1.2z"/>
  <path d="M385.1 625.8 l-4.3 -1 0.5 -4.3 c0.9 -6.1 5.6 -24.8 6.5 -25.7 0.9 -0.9 12 0.9 14.2 2.2 1.1 0.7 0.7 3.2 -2 13.7 -1.8 7 -3.7 13.6 -4.2 14.6 -1 1.9 -3.8 2 -10.7 0.5z"/>
  <path d="M565.2 626.3 l-5.2 -0.4 0.2 -23.2 0.3 -23.2 10.1 -0.3 c9.8 -0.3 10.2 -0.2 10.8 2 0.3 1.3 0.6 11.4 0.6 22.5 0 17 -0.2 20.4 -1.6 21.7 -1.5 1.6 -3.3 1.7 -15.2 0.9z"/>
  <path d="M458.5 624.8 c-0.3 -0.8 -0.4 -11.2 -0.3 -23.3 l0.3 -22 7.5 0 7.5 0 0 23 0 23 -7.3 0.3 c-5.3 0.2 -7.4 -0.1 -7.7 -1z"/>
  <path d="M482.5 624.8 c-0.3 -0.8 -0.4 -11.2 -0.3 -23.3 l0.3 -22 9.7 -0.3 9.7 -0.3 0.6 3.3 c0.3 1.8 0.5 12.3 0.3 23.3 l-0.3 20 -9.8 0.3 c-7.3 0.2 -9.9 -0.1 -10.2 -1z"/>
  <path d="M628 602.5 l0 -23.6 7.8 0.3 7.7 0.3 0 23 0 23 -7.7 0.3 -7.8 0.3 0 -23.6z"/>
  <path d="M398.6 585.9 c-3.7 -0.9 -7.2 -2.1 -7.6 -2.6 -1.1 -1.3 4.3 -21.4 6.1 -22.6 2.1 -1.3 10.3 0 13 2.2 l2.1 1.7 -2.3 10.3 c-1.2 5.6 -2.7 10.8 -3.3 11.5 -0.9 1.1 -2.3 1 -8 -0.5z"/>
  <path d="M459.3 568.4 c-1.9 -0.8 -1.6 -6.1 0.3 -6.8 2 -0.8 7.3 -0.8 11.3 0 2.9 0.6 3.2 1 2.9 3.8 -0.3 3.1 -0.3 3.1 -6.8 3.3 -3.6 0.1 -7.1 -0.1 -7.7 -0.3z"/>
  <path d="M483 567.5 c-1 -1.2 -1 -2.1 -0.2 -4.1 1.2 -2.4 1.4 -2.5 10.4 -2.2 l9.3 0.3 0.3 2.9 c0.2 1.6 -0.2 3.2 -1 3.7 -0.7 0.5 -5 0.9 -9.4 0.9 -6.1 0 -8.5 -0.4 -9.4 -1.5z"/>
  <path d="M629.7 568.4 c-1.3 -1.4 -0.7 -6.2 0.9 -6.8 2.3 -0.9 10.7 -0.7 12.2 0.3 0.8 0.5 1.2 2.1 1 3.7 -0.3 2.8 -0.4 2.9 -6.8 3.2 -3.6 0.2 -6.9 0 -7.3 -0.4z"/>
  <path d="M560.7 567.4 c-0.4 -0.4 -0.7 -1.6 -0.7 -2.6 0 -2.7 4.3 -3.9 12.9 -3.6 l7.6 0.3 0 3 0 3 -9.5 0.3 c-5.3 0.1 -9.9 0 -10.3 -0.4z"/>
  <path d="M626.4 536.5 c-0.7 -1.9 -1.4 -3.9 -1.4 -4.5 0 -1.4 5 -3.5 15.5 -6.6 9.2 -2.8 10.3 -2.3 11.2 4.4 0.6 4.8 0.2 5.2 -11.4 8.1 -11.2 2.9 -12.1 2.8 -13.9 -1.4z"/>
  <path d="M385.2 536.8 c-1.5 -1.5 -1.7 -82.3 -0.2 -86.2 0.9 -2.6 1 -2.6 12.8 -2.6 7.8 0 12.2 0.4 13 1.2 0.9 0.9 1.2 11.9 1.2 43.4 0 23.2 -0.3 42.9 -0.6 43.8 -0.5 1.3 -2.6 1.6 -12.8 1.6 -8.2 0 -12.6 -0.4 -13.4 -1.2z m19.1 -12 c2 -2.6 2 -3 0.4 -6.2 -3.2 -6.8 -12.8 -5.2 -13.5 2.3 -0.5 4.8 2.1 7.3 7.1 6.9 3 -0.2 4.5 -1 6 -3z"/>
  <path d="M421.5 536.8 c-0.3 -0.7 -0.4 -16.2 -0.3 -34.3 l0.3 -33 9.5 0 9.5 0 0 34 0 34 -9.3 0.3 c-6.8 0.2 -9.4 -0.1 -9.7 -1z m13.2 -9.2 c2.4 -2.1 2.6 -2.7 1.8 -5.2 -1.5 -4.2 -5.7 -5.4 -9.3 -2.7 -3.7 2.7 -3.9 5.6 -0.6 8.2 3.4 2.7 4.7 2.6 8.1 -0.3z"/>
  <path d="M450.4 536.6 c-0.3 -0.8 -0.4 -2.5 -0.2 -3.8 0.3 -2.2 0.7 -2.3 7.3 -2.3 l7 0 0 3.5 0 3.5 -6.8 0.3 c-5.2 0.2 -6.9 0 -7.3 -1.2z"/>
  <path d="M475 535.5 c-1.6 -4.1 -1.3 -83.7 0.3 -85.8 1.1 -1.5 2.8 -1.7 13.7 -1.5 l12.5 0.3 0 44.5 0 44.5 -12.8 0.3 -12.7 0.3 -1 -2.6z m17.6 -8.8 c7.5 -6.5 -1.2 -16.8 -9 -10.6 -4.2 3.3 -3.3 8.9 1.9 11.7 2.9 1.7 4.1 1.5 7.1 -1.1z"/>
  <path d="M522.2 536.8 c-0.7 -0.7 -1.2 -2.6 -1.2 -4.3 0 -5.1 1.1 -5.5 16.1 -5.5 11.6 0 13.8 0.2 14.3 1.6 1 2.6 0.7 6.9 -0.6 8.2 -1.7 1.7 -26.9 1.7 -28.6 0z"/>
  <path d="M562.2 536.8 c-1.7 -1.7 -1.7 -85.9 0 -87.6 0.8 -0.8 5.2 -1.2 13.4 -1.2 10.2 0 12.3 0.3 12.8 1.6 0.3 0.9 0.6 20.6 0.6 43.8 0 31.5 -0.3 42.5 -1.2 43.4 -0.8 0.8 -5.1 1.2 -12.8 1.2 -7.7 0 -12 -0.4 -12.8 -1.2z m18.1 -11 c2.5 -3 1.8 -7.6 -1.5 -10.1 -5.5 -4.1 -13.5 1.6 -11.3 8 2 5.4 9 6.6 12.8 2.1z"/>
  <path d="M450.4 518.7 c-0.2 -0.7 -0.3 -9.1 -0.2 -18.7 l0.3 -17.5 6.9 -0.3 c4.9 -0.2 7.2 0.1 7.7 1 1 1.5 1.2 29.1 0.3 33.7 l-0.6 3.1 -7 0 c-4.7 0 -7 -0.4 -7.4 -1.3z"/>
  <path d="M619.9 515.3 c-1.5 -4.6 -0.8 -5.2 10.4 -8.6 12.1 -3.7 12 -3.7 13.3 0.3 0.7 1.9 0.9 3.9 0.5 4.3 -1.1 1.2 -19.1 7.7 -21.2 7.7 -1.1 0 -2.2 -1.3 -3 -3.7z"/>
  <path d="M521.5 513.8 c-0.3 -0.8 -0.4 -11 -0.3 -22.8 l0.3 -21.5 15 0 15 0 0 22.5 0 22.5 -14.8 0.3 c-11.4 0.2 -14.9 0 -15.2 -1z"/>
  <path d="M614.1 497.1 c-1.6 -2.9 -6.1 -18.8 -6.1 -21.3 0 -2.3 0.9 -2.8 10.5 -5.7 5.8 -1.8 11.3 -3.1 12.2 -2.9 1.2 0.2 2.7 3.3 5 10.3 4.6 14.5 4.8 13.9 -4.8 17 -13.3 4.2 -15.8 4.6 -16.8 2.6z"/>
  <path d="M451.4 471.5 c-1.4 -3.5 0.3 -4.6 6.8 -4.3 6 0.3 6.3 0.4 6.3 2.8 0 2.4 -0.3 2.5 -6.3 2.8 -4.9 0.2 -6.4 0 -6.8 -1.3z"/>
  <path d="M601.3 458.3 c-1.4 -3.5 -1.4 -3.8 0.5 -5.4 1.2 -0.9 6.6 -2.9 12.2 -4.4 11.2 -3.2 12.4 -2.9 13.6 3.2 l0.6 3.1 -11 3.6 c-6.1 2 -11.8 3.6 -12.7 3.6 -0.9 0 -2.3 -1.6 -3.2 -3.7z"/>
  <path d="M421.4 456.6 c-0.3 -0.8 -0.4 -2.9 -0.2 -4.8 l0.3 -3.3 9.3 -0.3 c8.9 -0.3 9.2 -0.2 10.3 2.2 0.6 1.3 0.9 3.6 0.5 5 -0.6 2.6 -0.8 2.6 -10.2 2.6 -7.2 0 -9.6 -0.3 -10 -1.4z"/>
  <path d="M521.6 455.4 c-1.9 -1.9 -2 -3.5 -0.3 -5.7 1.1 -1.6 3 -1.7 15.7 -1.5 l14.5 0.3 0.3 3.4 c0.2 2 -0.2 3.7 -1 4.2 -0.7 0.5 -7.2 0.9 -14.5 0.9 -10.6 0 -13.5 -0.3 -14.7 -1.6z"/>
  <path d="M335.2 429.8 c-0.7 -0.7 -1.2 -4.1 -1.2 -8.3 0 -5.7 0.4 -7.5 1.8 -8.8 1.7 -1.6 15.5 -1.7 178 -1.7 l176.1 0 1.5 2.2 c2.2 3.1 2.2 14.1 0 16.2 -1.4 1.4 -18.9 1.6 -178.3 1.6 -136.1 0 -177 -0.3 -177.9 -1.2z"/>
  <path d="M453.5 392.3 c-12.1 -0.2 -22.3 -0.7 -22.8 -1.2 -0.8 -0.8 -3 -12.7 -11.7 -64.1 -7.4 -43.6 -7.4 -43.5 -9.6 -43.2 -12.3 2.1 -18.2 1 -24.1 -4.1 -9.4 -8.3 -9.8 -22.7 -0.9 -31.3 13.2 -12.7 34.9 -4.9 36.4 13.1 0.4 4.5 0 6.5 -2.3 11.1 l-2.7 5.6 2.3 2.3 c2.8 2.6 37.9 33 41.9 36.3 l2.8 2.2 19.4 -20.6 c10.6 -11.4 21.7 -23.3 24.6 -26.7 l5.3 -6 -6.6 -3.6 c-9.2 -4.9 -12.8 -10 -13.3 -18.5 -0.7 -10.4 2.9 -17.6 10.8 -21.6 8.2 -4.2 15.9 -3.8 23.3 1.1 8.1 5.3 11.4 15.3 8.5 25.3 -1.5 5.1 -10 13.8 -15.1 15.5 -3.3 1.1 -3.6 1.5 -2.6 3.2 2.3 4.4 46.6 50.9 48.4 50.9 0.9 0 21.3 -17.5 38.7 -33.1 l7.7 -6.9 -2.5 -4.3 c-3 -5.2 -3.2 -13.3 -0.5 -19.3 4.6 -10 17.6 -15.1 27.9 -10.9 15.2 6.4 17.2 28.3 3.4 37.9 -4.8 3.4 -13.8 4.6 -19.3 2.7 -2.5 -0.9 -3.4 -0.8 -4 0.1 -1 1.6 -3.5 15.4 -11.9 64.8 -5.4 32.3 -7.4 41.8 -8.7 42.8 -1.6 1.1 -71.5 1.4 -142.8 0.5z m64.2 -29.9 c3.5 -7.3 11.2 -14.2 19.1 -17.3 5.7 -2.2 8 -4.1 5 -4.1 -0.7 0 -4 -1.3 -7.3 -2.8 -9.1 -4.3 -15.6 -12.5 -18.5 -23.1 -0.6 -2.4 -1.5 -4 -1.9 -3.5 -0.4 0.5 -2 4.1 -3.6 7.9 -3.8 9 -9.7 15.1 -18.7 19 -3.8 1.6 -6.8 3.3 -6.8 3.6 0 0.4 2.2 1.5 4.9 2.4 10.3 3.4 17.1 9.5 21.5 19.3 1.1 2.3 2.3 4.2 2.7 4.2 0.5 0 2.1 -2.5 3.6 -5.6z"/>
 </g>
</svg>